<?xml version="1.0" encoding="UTF-8" standalone="no"?>
<!-- Created with Inkscape (http://www.inkscape.org/) -->

<svg
   width="146.01443mm"
   height="18.159227mm"
   viewBox="0 0 146.01443 18.159227"
   version="1.1"
   id="svg1"
   xmlns="http://www.w3.org/2000/svg"
   xmlns:svg="http://www.w3.org/2000/svg">
  <defs
     id="defs1" />
  <g
     id="layer1"
     transform="translate(-32.556587,-123.378)">
    <path
       d="m 164.02356,128.7038 4.90775,12.20902 c 0.0545,0.13558 0.21713,0.24657 0.36326,0.24715 1.33094,0.005 2.66185,-0.0328 3.99261,-0.008 0.1458,0.003 0.30817,-0.10403 0.36267,-0.23961 l 4.90826,-12.20902 a 0.17879628,0.17879628 55.95053 0 0 -0.16589,-0.24549 h -4.1951 a 0.37363587,0.37363587 144.69649 0 0 -0.35243,0.24957 l -2.466,7.00531 a 0.09313804,0.09313804 180 0 1 -0.1757,0 l -2.466,-7.00531 a 0.37363587,0.37363587 35.303512 0 0 -0.35243,-0.24957 h -4.1951 a 0.17880321,0.17880321 124.0505 0 0 -0.1659,0.24549 z"
       style="font-weight:900;font-size:25.4px;font-family:Figtree;-inkscape-font-specification:'Figtree Heavy';stroke-width:0.264583"
       id="path11" />
    <path
       d="m 157.41161,128.15694 c -1.16313,0.0312 -2.20673,0.26953 -3.13128,0.71507 -0.13163,0.0634 -0.34087,0.17479 -0.46713,0.24833 -0.86253,0.50239 -1.56032,1.16351 -2.0932,1.98334 -0.0796,0.12251 -0.20059,0.32637 -0.26952,0.4552 -0.46915,0.87687 -0.72071,1.87188 -0.75487,2.98488 -0.004,0.14606 -0.004,0.38304 0,0.52909 0.0342,1.11295 0.28572,2.10757 0.75487,2.98437 0.0689,0.12883 0.19117,0.33193 0.27225,0.45349 0.54799,0.82152 1.26138,1.48376 2.14021,1.9867 0.12682,0.0726 0.33678,0.18254 0.46874,0.24529 0.93887,0.44645 1.99104,0.68527 3.15641,0.71646 0.14607,0.004 0.38304,0.004 0.52909,-5.2e-4 0.62549,-0.0191 1.25607,-0.10589 1.89197,-0.26034 0.142,-0.0345 0.37037,-0.0978 0.50921,-0.1434 0.64382,-0.21123 1.23463,-0.51266 1.77211,-0.90469 0.11805,-0.0861 0.30359,-0.23373 0.4121,-0.33157 0.51293,-0.4625 0.90602,-1.03408 1.17915,-1.71459 0.0544,-0.1356 -0.0206,-0.28297 -0.16018,-0.32626 l -3.5078,-1.0881 c -0.13956,-0.0433 -0.28052,0.038 -0.34305,0.16988 -0.10311,0.21739 -0.26382,0.41359 -0.48205,0.58856 -0.11396,0.0914 -0.31518,0.21811 -0.44698,0.28103 -0.28456,0.13586 -0.60186,0.21733 -0.9518,0.24422 -0.14567,0.0112 -0.38308,0.0114 -0.5286,-0.001 -0.27685,-0.0243 -0.52639,-0.088 -0.74871,-0.19111 -0.13246,-0.0614 -0.33235,-0.19112 -0.4427,-0.28672 -0.17334,-0.15017 -0.31873,-0.33116 -0.43609,-0.5429 -0.0708,-0.12775 -0.16129,-0.34759 -0.20278,-0.48763 -0.0242,-0.0818 -0.0452,-0.16608 -0.0636,-0.25253 -0.0303,-0.14289 0.0715,-0.26029 0.21766,-0.26029 h 8.35608 c 0.14612,0 0.26483,-0.11847 0.26238,-0.26457 -0.0256,-1.52523 -0.2749,-2.81359 -0.7479,-3.86513 -0.0599,-0.13325 -0.16466,-0.34587 -0.23318,-0.47493 -0.50289,-0.94724 -1.16604,-1.67867 -1.98941,-2.19448 -0.12383,-0.0776 -0.32957,-0.19531 -0.45881,-0.26347 -0.86038,-0.45373 -1.83833,-0.69732 -2.93353,-0.73085 -0.14605,-0.004 -0.38302,-0.004 -0.52909,-5e-4 z m 0.40178,3.16347 c 0.16416,0.0217 0.32629,0.0638 0.48637,0.1263 0.13604,0.0531 0.35014,0.15716 0.47199,0.23754 0.17144,0.11309 0.32481,0.25977 0.46011,0.43998 0.0877,0.1168 0.2078,0.32252 0.25999,0.45883 0.0374,0.0978 0.0689,0.20335 0.0957,0.31511 0.034,0.14197 -0.0661,0.25908 -0.21221,0.25908 h -3.65663 c -0.14612,0 -0.24758,-0.11739 -0.21604,-0.26005 0.0244,-0.11015 0.053,-0.21431 0.0869,-0.31088 0.0484,-0.1376 0.16475,-0.34521 0.25163,-0.46262 0.13107,-0.17716 0.27705,-0.32188 0.43807,-0.43413 0.11974,-0.0835 0.3341,-0.18735 0.47079,-0.23882 0.17625,-0.0664 0.3548,-0.11034 0.53553,-0.13196 0.14503,-0.0173 0.38307,-0.0175 0.52784,0.002 z m -26.86802,4.99899 c -0.5179,0.0497 -0.98298,0.2481 -1.39526,0.5955 -0.11171,0.0941 -0.27969,0.26201 -0.3732,0.37423 -0.33288,0.39948 -0.52317,0.85597 -0.5711,1.36943 -0.0136,0.14545 -0.0136,0.383 -4e-5,0.52844 0.048,0.51664 0.23923,0.98071 0.57391,1.39223 0.0922,0.11334 0.26009,0.28126 0.37341,0.37344 0.41153,0.33477 0.8756,0.52631 1.39224,0.5744 0.14545,0.0135 0.383,0.0136 0.52844,-4e-5 0.51347,-0.048 0.96996,-0.2386 1.36944,-0.57156 0.11222,-0.0935 0.2801,-0.26151 0.37424,-0.37321 0.34749,-0.41228 0.5462,-0.87736 0.596,-1.39526 0.014,-0.14541 0.014,-0.383 -4e-5,-0.52839 -0.0497,-0.5148 -0.2475,-0.97232 -0.59319,-1.37254 -0.0955,-0.11056 -0.26338,-0.27844 -0.37393,-0.37392 -0.40022,-0.3456 -0.85774,-0.54307 -1.37252,-0.59271 -0.14541,-0.014 -0.383,-0.014 -0.5284,-4e-5 z"
       style="font-weight:900;font-size:25.4px;font-family:Figtree;-inkscape-font-specification:'Figtree Heavy';stroke-width:0.264583"
       id="path10" />
    <path
       d="m 144.46818,123.64258 v 5.8534 c 0,0.14612 -0.0693,0.16835 -0.16178,0.0553 -0.13073,-0.15981 -0.27035,-0.30833 -0.42103,-0.44275 -0.10899,-0.0972 -0.29737,-0.24157 -0.41942,-0.32186 -0.581,-0.38217 -1.28488,-0.59121 -2.11135,-0.62749 -0.14597,-0.006 -0.383,-0.006 -0.52904,-0.001 -0.98727,0.0326 -1.85527,0.24959 -2.6043,0.65143 -0.12875,0.0691 -0.33085,0.1931 -0.45065,0.27675 -0.67416,0.47074 -1.21421,1.10495 -1.61998,1.90244 -0.0663,0.13023 -0.16554,0.34548 -0.22137,0.4805 -0.35965,0.86986 -0.55185,1.89496 -0.57663,3.07489 -0.003,0.14609 -0.003,0.38303 7e-5,0.52912 0.0251,1.16738 0.21768,2.19189 0.57787,3.07381 0.0552,0.13526 0.1538,0.35084 0.22006,0.48107 0.40577,0.79748 0.94582,1.43169 1.61998,1.90243 0.11979,0.0837 0.3219,0.20768 0.45065,0.27675 0.74903,0.40184 1.61703,0.61884 2.6043,0.65143 0.14604,0.005 0.38307,0.005 0.52904,-0.001 0.82647,-0.0363 1.53035,-0.24532 2.11136,-0.6275 0.12205,-0.0803 0.3104,-0.2246 0.42025,-0.32092 0.18826,-0.16509 0.36079,-0.35024 0.51832,-0.55445 0.0892,-0.11569 0.16655,-0.0964 0.18064,0.049 l 0.0864,0.89182 a 0.29146183,0.29146183 42.232551 0 0 0.2901,0.26335 l 3.81425,0 a 0.26458333,0.26458333 135 0 0 0.26458,-0.26458 v -17.25115 a 0.26458333,0.26458333 45 0 0 -0.26458,-0.26458 h -4.04318 a 0.26458333,0.26458333 135 0 0 -0.26458,0.26458 z m -1.9202,8.76534 c 0.23406,0.0235 0.44936,0.0793 0.64588,0.16716 0.13328,0.0596 0.33611,0.18445 0.45052,0.27518 0.17,0.13481 0.31626,0.29601 0.43871,0.48365 0.0798,0.12231 0.18779,0.3344 0.23688,0.47191 0.0553,0.15488 0.0938,0.32046 0.11938,0.49426 0.0212,0.14444 0.0546,0.37192 0.0546,0.50823 -0.0258,0.24753 -0.0258,0.24753 -0.0258,0.24753 -0.0545,0.44299 -0.094,0.6156 -0.15114,0.77863 -0.0482,0.13774 -0.15627,0.34964 -0.23811,0.47061 -0.12255,0.18113 -0.26873,0.34127 -0.43848,0.48044 -0.11295,0.0926 -0.31325,0.22123 -0.44632,0.28133 -0.19122,0.0864 -0.39797,0.14161 -0.62037,0.16565 -0.14522,0.0157 -0.38303,0.0157 -0.52812,-9.4e-4 -0.21677,-0.0248 -0.42319,-0.0808 -0.61919,-0.16796 -0.13345,-0.0593 -0.3336,-0.18789 -0.44418,-0.2833 -0.15972,-0.13781 -0.29907,-0.29602 -0.41795,-0.47467 -0.0809,-0.1216 -0.18891,-0.33332 -0.24103,-0.46977 -0.0903,-0.23629 -0.14998,-0.49081 -0.1793,-0.76368 -0.0156,-0.14526 -0.0157,-0.38249 8e-5,-0.52773 0.029,-0.26755 0.0876,-0.51437 0.17604,-0.74034 0.0532,-0.13601 0.16115,-0.3478 0.24007,-0.4707 0.11878,-0.18496 0.25814,-0.34423 0.41801,-0.47783 0.11204,-0.0936 0.31337,-0.22092 0.44622,-0.28152 0.18592,-0.0848 0.38436,-0.1395 0.59539,-0.16405 0.14507,-0.0169 0.38285,-0.0167 0.52818,-0.002 z"
       style="font-weight:900;font-size:25.4px;font-family:Figtree;-inkscape-font-specification:'Figtree Heavy';stroke-width:0.264583"
       id="path9" />
    <path
       d="m 120.42937,128.15694 c -1.16313,0.0312 -2.20673,0.26952 -3.13127,0.71507 -0.13163,0.0634 -0.34087,0.17479 -0.46713,0.24833 -0.86253,0.50239 -1.56032,1.16351 -2.09321,1.98334 -0.0796,0.12251 -0.20059,0.32637 -0.26952,0.4552 -0.46922,0.87687 -0.72117,1.87188 -0.75539,2.98488 -0.004,0.14606 -0.004,0.38304 0,0.52909 0.0342,1.11295 0.28617,2.10757 0.75538,2.98437 0.0689,0.12883 0.19118,0.33193 0.27226,0.45349 0.54799,0.82152 1.26139,1.48376 2.14021,1.9867 0.12682,0.0726 0.33678,0.18254 0.46874,0.24529 0.93887,0.44645 1.99104,0.68527 3.15642,0.71646 0.14607,0.004 0.38304,0.004 0.52909,-5.2e-4 0.62548,-0.0191 1.25607,-0.10589 1.89196,-0.26034 0.142,-0.0345 0.37037,-0.0978 0.50921,-0.1434 0.64382,-0.21123 1.23464,-0.51266 1.77211,-0.90469 0.11805,-0.0861 0.30359,-0.23373 0.41209,-0.33158 0.51286,-0.4625 0.9056,-1.03407 1.17866,-1.71457 0.0544,-0.13561 -0.0206,-0.28298 -0.1602,-0.32627 l -3.50779,-1.0881 c -0.13956,-0.0433 -0.28051,0.038 -0.34299,0.1699 -0.10301,0.21737 -0.26349,0.41355 -0.48161,0.58852 -0.11394,0.0914 -0.31516,0.21812 -0.44696,0.28105 -0.28457,0.13586 -0.60187,0.21733 -0.95181,0.24422 -0.14567,0.0112 -0.38308,0.0114 -0.5286,-0.001 -0.27685,-0.0243 -0.52639,-0.088 -0.74871,-0.19111 -0.13246,-0.0614 -0.33235,-0.19112 -0.4427,-0.28672 -0.17334,-0.15017 -0.31872,-0.33116 -0.43608,-0.5429 -0.0708,-0.12775 -0.1613,-0.34758 -0.20291,-0.48758 -0.0243,-0.0818 -0.0454,-0.16612 -0.0639,-0.2526 -0.0305,-0.14286 0.0714,-0.26027 0.21754,-0.26027 h 8.3566 c 0.14612,0 0.26483,-0.11847 0.26238,-0.26457 -0.0256,-1.52523 -0.2749,-2.81359 -0.7479,-3.86513 -0.0599,-0.13325 -0.16466,-0.34587 -0.23317,-0.47493 -0.50289,-0.94724 -1.16604,-1.67867 -1.98942,-2.19448 -0.12383,-0.0776 -0.32957,-0.19531 -0.45881,-0.26347 -0.86038,-0.45373 -1.83833,-0.69732 -2.93353,-0.73085 -0.14605,-0.004 -0.38302,-0.004 -0.52909,-5e-4 z m 0.40177,3.16348 c 0.16402,0.0217 0.32594,0.0637 0.48588,0.12626 0.13603,0.0532 0.35013,0.1572 0.47198,0.23757 0.17144,0.11309 0.32481,0.25977 0.4601,0.43998 0.0877,0.1168 0.2078,0.32252 0.25999,0.45883 0.0374,0.0978 0.0689,0.20335 0.0957,0.31511 0.034,0.14197 -0.0661,0.25908 -0.21221,0.25908 h -3.65611 c -0.14612,0 -0.24758,-0.11739 -0.21613,-0.26007 0.0243,-0.11013 0.0528,-0.21426 0.0866,-0.31081 0.0483,-0.13764 0.16462,-0.34526 0.25154,-0.46264 0.13118,-0.17719 0.27737,-0.32194 0.43853,-0.4342 0.11977,-0.0834 0.33412,-0.18731 0.47081,-0.23878 0.17625,-0.0664 0.3548,-0.11034 0.53553,-0.13196 0.14503,-0.0173 0.38307,-0.0175 0.52783,0.002 z"
       style="font-weight:900;font-size:25.4px;font-family:Figtree;-inkscape-font-specification:'Figtree Heavy';stroke-width:0.264583"
       id="path8" />
    <path
       d="m 104.94605,124.76034 0,3.43339 a 0.26458333,0.26458333 135 0 1 -0.26458,0.26458 h -1.37563 a 0.26458333,0.26458333 135 0 0 -0.26458,0.26458 v 3.28043 a 0.26458333,0.26458333 45 0 0 0.26458,0.26458 h 1.37563 a 0.26458333,0.26458333 45 0 1 0.26458,0.26458 v 4.34806 c 0,0.14612 -5.7e-4,0.38309 0.005,0.52911 0.0419,1.14843 0.36077,2.06297 0.95653,2.74369 0.0962,0.10992 0.2659,0.27589 0.37861,0.36882 0.71356,0.58836 1.72821,0.90051 3.04391,0.93692 0.14603,0.004 0.3831,0.004 0.52887,-0.005 0.43096,-0.0289 0.87072,-0.12811 1.31928,-0.29785 0.13666,-0.0517 0.35413,-0.14599 0.48637,-0.20814 0.41749,-0.19622 0.77667,-0.409 1.07757,-0.63851 0.11615,-0.0886 0.15486,-0.27417 0.0928,-0.40646 l -1.3245,-2.82306 c -0.0621,-0.13229 -0.20941,-0.17062 -0.33917,-0.1037 -0.005,0.003 -0.0102,0.005 -0.0153,0.008 -0.13025,0.0661 -0.34916,0.15907 -0.49003,0.19754 -0.13932,0.038 -0.37893,0.0449 -0.52112,0.0126 -0.0887,-0.0202 -0.16712,-0.0516 -0.23517,-0.0944 -0.1228,-0.0772 -0.25431,-0.28411 -0.29817,-0.42299 -0.0441,-0.13949 -0.0726,-0.31015 -0.0854,-0.51199 -0.009,-0.1458 -0.008,-0.38287 -0.008,-0.52899 v -3.10317 a 0.26458333,0.26458333 135 0 1 0.26458,-0.26458 h 2.08722 a 0.26458333,0.26458333 135 0 0 0.26458,-0.26458 v -3.28043 a 0.26458333,0.26458333 45 0 0 -0.26458,-0.26458 h -2.08722 a 0.26458333,0.26458333 45 0 1 -0.26458,-0.26458 v -3.43339 a 0.26458333,0.26458333 45 0 0 -0.26458,-0.26458 l -4.04265,0 a 0.26458333,0.26458333 135 0 0 -0.26458,0.26458 z"
       style="font-weight:900;font-size:25.4px;font-family:Figtree;-inkscape-font-specification:'Figtree Heavy';stroke-width:0.264583"
       id="path7" />
    <path
       d="m 96.934796,128.16096 c -0.684439,0.0394 -1.310087,0.23368 -1.877003,0.58296 -0.124395,0.0766 -0.319186,0.21204 -0.433427,0.3031 -0.268559,0.21406 -0.511468,0.46896 -0.732591,0.75836 -0.0887,0.11608 -0.168164,0.0963 -0.183937,-0.049 l -0.11238,-1.03506 a 0.2948649,0.2948649 41.901743 0 0 -0.293142,-0.26304 h -3.788917 a 0.26458333,0.26458333 135 0 0 -0.264583,0.26458 v 12.17084 a 0.26458333,0.26458333 45 0 0 0.264583,0.26458 h 4.042648 a 0.26458333,0.26458333 135 0 0 0.264583,-0.26458 l 0,-6.22753 c 0,-0.14612 -0.0012,-0.3832 0.0084,-0.52898 0.02869,-0.43707 0.131207,-0.78864 0.307521,-1.05477 0.08056,-0.12159 0.249771,-0.2913 0.371586,-0.37156 0.255193,-0.16812 0.581471,-0.25779 0.978726,-0.26889 0.146002,-0.004 0.383803,0.007 0.526638,0.037 0.109865,0.0232 0.211103,0.0575 0.303696,0.10285 0.130898,0.0642 0.318306,0.21457 0.41214,0.32621 0.07535,0.0897 0.14064,0.19228 0.195851,0.30783 0.06295,0.13174 0.140206,0.35677 0.175656,0.49843 0.04922,0.19669 0.07998,0.42238 0.09228,0.67709 0.007,0.1459 0.0062,0.38286 0.0062,0.52898 l 0,5.97329 a 0.26458333,0.26458333 45 0 0 0.264583,0.26458 h 4.042652 a 0.26458333,0.26458333 135 0 0 0.26458,-0.26458 l 0,-5.97329 0,-0.76222 c 0,-0.14612 2.8e-4,-0.38305 -0.002,-0.52915 -0.0194,-1.06429 -0.15722,-1.9686 -0.41349,-2.71309 -0.0476,-0.13815 -0.13342,-0.35913 -0.19275,-0.49265 -0.28158,-0.63363 -0.67385,-1.13018 -1.176779,-1.48976 -0.118838,-0.085 -0.321306,-0.20874 -0.450594,-0.27677 -0.57564,-0.30288 -1.266016,-0.46912 -2.071303,-0.49861 -0.146016,-0.005 -0.383095,-0.006 -0.528958,0.003 z"
       style="font-weight:900;font-size:25.4px;font-family:Figtree;-inkscape-font-specification:'Figtree Heavy';stroke-width:0.264583"
       id="path6" />
    <path
       d="m 80.373955,128.15782 c -0.680615,0.0228 -1.314226,0.13459 -1.900534,0.33557 -0.138218,0.0474 -0.359207,0.13313 -0.493351,0.19105 -0.528554,0.22822 -1.007583,0.52571 -1.437189,0.89246 -0.111127,0.0949 -0.282714,0.25843 -0.383408,0.36431 -0.386262,0.40615 -0.722923,0.86694 -1.009929,1.38226 -0.0711,0.12766 -0.0118,0.26931 0.127438,0.31366 l 3.483662,1.1096 c 0.139233,0.0443 0.318358,-0.0182 0.411417,-0.13083 0.0979,-0.11846 0.205086,-0.22953 0.321564,-0.33312 0.109161,-0.0971 0.299273,-0.24099 0.430561,-0.30463 0.162859,-0.0789 0.346689,-0.12986 0.551521,-0.15285 0.14514,-0.0163 0.382727,-0.0156 0.528432,-0.005 0.348761,0.0255 0.63151,0.10374 0.848218,0.23486 0.124698,0.0754 0.294214,0.24506 0.378441,0.36425 0.130272,0.18435 0.226294,0.40298 0.288075,0.65581 0.03467,0.1419 0.05885,0.37786 0.0659,0.52376 0.0024,0.0506 -0.11189,0.0916 -0.258015,0.0916 h -2.64325 c -0.146125,0 -0.383068,-4.2e-4 -0.529134,0.004 -1.227316,0.0334 -2.218786,0.30255 -2.974825,0.80723 -0.121502,0.0811 -0.309525,0.22598 -0.416768,0.32517 -0.627673,0.58049 -0.965101,1.40895 -1.011838,2.48566 -0.0063,0.14595 -0.0064,0.383 6.09e-4,0.52894 0.04913,1.02321 0.38821,1.84111 1.016789,2.45388 0.104614,0.10198 0.288774,0.25167 0.409246,0.33432 0.756289,0.51882 1.748421,0.79542 2.976808,0.82973 0.146053,0.004 0.383051,0.004 0.529038,-0.002 1.176577,-0.0492 2.120757,-0.43149 2.83226,-1.14688 0.103031,-0.10359 0.181567,-0.27084 0.233265,-0.27084 l 0.0371,0.85447 a 0.27632125,0.27632125 43.756846 0 0 0.276061,0.26433 h 3.763079 a 0.26458333,0.26458333 135 0 0 0.264583,-0.26458 l 0,-6.60839 c 0,-0.14612 5.07e-4,-0.38308 -0.0044,-0.52911 -0.03236,-0.95972 -0.242532,-1.81879 -0.630843,-2.5768 -0.06662,-0.13004 -0.185058,-0.33543 -0.264444,-0.45809 -0.455159,-0.70329 -1.068318,-1.27209 -1.838999,-1.70659 -0.127281,-0.0718 -0.33858,-0.17922 -0.471687,-0.23948 -0.850421,-0.38502 -1.842367,-0.59116 -2.976336,-0.61867 -0.14608,-0.004 -0.264564,-0.003 -0.26457,-0.003 z m 1.11306,8.14911 h 0.918808 c 0.146125,0 0.266347,0.11887 0.25089,0.2641 -0.02028,0.19052 -0.06306,0.36978 -0.128285,0.53782 -0.05284,0.13612 -0.170897,0.34316 -0.262221,0.45707 -0.09761,0.12175 -0.210492,0.23011 -0.338684,0.32509 -0.117326,0.0869 -0.328277,0.19754 -0.466561,0.24441 -0.177943,0.0603 -0.372637,0.0991 -0.58401,0.11644 -0.145596,0.0119 -0.383086,0.0124 -0.528539,-0.001 -0.152931,-0.0141 -0.289579,-0.0413 -0.409984,-0.0814 -0.138312,-0.0461 -0.348743,-0.16867 -0.438015,-0.28336 -0.03621,-0.0465 -0.06499,-0.0971 -0.08631,-0.1516 -0.05292,-0.13533 -0.05027,-0.37967 -0.01597,-0.52135 0.04058,-0.16766 0.122548,-0.31359 0.245878,-0.43769 0.102809,-0.10346 0.307169,-0.22897 0.442063,-0.28468 0.23805,-0.0983 0.528674,-0.1571 0.87192,-0.17655 0.145866,-0.008 0.382897,-0.007 0.529022,-0.007 z"
       style="font-weight:900;font-size:25.4px;font-family:Figtree;-inkscape-font-specification:'Figtree Heavy';stroke-width:0.264583"
       id="path5" />
    <path
       d="m 67.775217,128.15656 c -1.400943,0.0337 -2.543956,0.33789 -3.429313,0.91292 -0.122522,0.0796 -0.313041,0.22088 -0.423703,0.31627 -0.750595,0.64697 -1.153952,1.51104 -1.20975,2.59226 -0.0075,0.14597 -0.0076,0.38314 9.33e-4,0.52899 0.04385,0.74885 0.276199,1.4202 0.696583,2.014 0.08442,0.11924 0.233684,0.30366 0.333676,0.41018 0.520802,0.55475 1.232776,0.96461 2.136125,1.22955 0.140207,0.0411 0.37029,0.0978 0.512245,0.13247 l 0.527216,0.12873 c 0.141955,0.0347 0.372446,0.0898 0.512888,0.13008 0.24023,0.069 0.443467,0.14527 0.609635,0.22903 0.130268,0.0657 0.332935,0.19543 0.427983,0.30576 0.04234,0.0491 0.07597,0.10139 0.100907,0.15675 0.05956,0.13225 0.06158,0.38162 0.0055,0.51548 -0.0082,0.0197 -0.01753,0.0387 -0.02788,0.057 -0.0711,0.12627 -0.27629,0.26383 -0.414614,0.30927 -0.05063,0.0166 -0.104182,0.0299 -0.160645,0.0397 -0.143779,0.025 -0.382436,0.0222 -0.527077,0.002 -0.116998,-0.0161 -0.241288,-0.0425 -0.372893,-0.0791 -0.140738,-0.0391 -0.36502,-0.12164 -0.48411,-0.20573 -0.172701,-0.12196 -0.320499,-0.29659 -0.44334,-0.52378 -0.06946,-0.12846 -0.222654,-0.19616 -0.358713,-0.14287 l -3.139106,1.22965 c -0.136059,0.0533 -0.209858,0.20941 -0.153472,0.34418 0.178839,0.42745 0.438645,0.8098 0.779573,1.1472 0.103847,0.10277 0.285996,0.25466 0.404353,0.34033 0.415422,0.30069 0.888467,0.54853 1.419243,0.74348 0.137159,0.0504 0.362546,0.12372 0.503144,0.16349 0.578744,0.16373 1.193537,0.25526 1.844446,0.27466 0.146063,0.004 0.383031,0.004 0.529126,0.001 0.966171,-0.019 1.827206,-0.14303 2.582831,-0.37256 0.139807,-0.0425 0.363162,-0.12179 0.498346,-0.17724 0.665117,-0.27285 1.209031,-0.62467 1.6319,-1.05551 0.102338,-0.10426 0.25528,-0.28574 0.339093,-0.40539 0.337295,-0.48152 0.526677,-1.03457 0.567861,-1.65904 0.0096,-0.14578 0.0095,-0.38297 0.0013,-0.52885 -0.02926,-0.52371 -0.146723,-1.00111 -0.352333,-1.43201 -0.06291,-0.13186 -0.181411,-0.33744 -0.262625,-0.45888 -0.261327,-0.39078 -0.590857,-0.73146 -0.988612,-1.02219 -0.117959,-0.0862 -0.315798,-0.21688 -0.440817,-0.2925 -0.458652,-0.27742 -0.976572,-0.49572 -1.553374,-0.65499 -0.140848,-0.0389 -0.371299,-0.094 -0.513255,-0.1287 l -0.527214,-0.12872 c -0.141956,-0.0347 -0.37163,-0.0928 -0.511892,-0.13381 -0.254541,-0.0743 -0.470814,-0.14864 -0.648792,-0.22297 -0.134745,-0.0563 -0.345064,-0.17205 -0.443207,-0.27976 -0.03332,-0.0366 -0.06116,-0.0743 -0.0835,-0.11324 -0.07191,-0.12526 -0.07397,-0.37759 -0.01276,-0.50898 0.0031,-0.007 0.0064,-0.0135 0.0098,-0.0201 0.06623,-0.12932 0.257055,-0.2839 0.393204,-0.33528 0.05974,-0.0225 0.124003,-0.0399 0.192783,-0.0521 0.14369,-0.0255 0.38212,-0.0234 0.527592,-0.0101 0.187126,0.0171 0.357459,0.053 0.51101,0.10777 0.137453,0.0491 0.348372,0.16241 0.459742,0.25658 0.11283,0.0954 0.207065,0.21119 0.282775,0.34743 0.0709,0.12758 0.218144,0.19925 0.354683,0.1472 l 3.036599,-1.15767 c 0.136539,-0.0521 0.202818,-0.20419 0.139806,-0.33601 -0.190253,-0.398 -0.432474,-0.76134 -0.726691,-1.09004 -0.09744,-0.10886 -0.265073,-0.2767 -0.375596,-0.37224 -0.350993,-0.30341 -0.771155,-0.5516 -1.260148,-0.74461 -0.135909,-0.0536 -0.359116,-0.13348 -0.49858,-0.17703 -0.56602,-0.17676 -1.232601,-0.27405 -1.999766,-0.29202 -0.146079,-0.003 -0.383033,-0.003 -0.529112,9e-5 z"
       style="font-weight:900;font-size:25.4px;font-family:Figtree;-inkscape-font-specification:'Figtree Heavy';stroke-width:0.264583"
       id="path4" />
    <path
       d="m 54.618403,128.15694 c -1.163184,0.0312 -2.207184,0.26953 -3.131793,0.71507 -0.131631,0.0634 -0.340868,0.17479 -0.467129,0.24833 -0.86253,0.50239 -1.560325,1.16351 -2.093202,1.98334 -0.07963,0.12251 -0.200591,0.32637 -0.269521,0.4552 -0.469157,0.87687 -0.720717,1.87188 -0.75488,2.98488 -0.0045,0.14606 -0.0045,0.38304 0,0.52909 0.03416,1.11295 0.285721,2.10757 0.754875,2.98437 0.06893,0.12883 0.191169,0.33193 0.272251,0.45349 0.547986,0.82152 1.261386,1.48376 2.140207,1.9867 0.126819,0.0726 0.336784,0.18254 0.468741,0.24529 0.938869,0.44645 1.991042,0.68527 3.156413,0.71646 0.14607,0.004 0.383045,0.004 0.529096,-5.2e-4 0.625482,-0.0191 1.25607,-0.10589 1.891964,-0.26034 0.141999,-0.0345 0.370372,-0.0978 0.509207,-0.1434 0.643822,-0.21123 1.234639,-0.51266 1.772114,-0.90469 0.118052,-0.0861 0.30359,-0.23373 0.412098,-0.33157 0.512934,-0.4625 0.90602,-1.03408 1.17915,-1.71459 0.05443,-0.1356 -0.02063,-0.28297 -0.16019,-0.32626 l -3.507781,-1.0881 c -0.139565,-0.0433 -0.280521,0.038 -0.343052,0.16988 -0.103115,0.21739 -0.263822,0.41359 -0.482055,0.58856 -0.113956,0.0914 -0.31518,0.21811 -0.446976,0.28103 -0.284564,0.13586 -0.601868,0.21733 -0.951807,0.24422 -0.145663,0.0112 -0.383079,0.0114 -0.528597,-0.001 -0.276852,-0.0243 -0.526391,-0.088 -0.748713,-0.1911 -0.13246,-0.0614 -0.332347,-0.19113 -0.442702,-0.28673 -0.173333,-0.15017 -0.318723,-0.33116 -0.436081,-0.5429 -0.0708,-0.12775 -0.161282,-0.34759 -0.202769,-0.48763 -0.02422,-0.0818 -0.04523,-0.16608 -0.06359,-0.25253 -0.03034,-0.14289 0.07153,-0.26029 0.217659,-0.26029 h 8.35608 c 0.146125,0 0.264835,-0.11847 0.262379,-0.26457 -0.02563,-1.52523 -0.274897,-2.81359 -0.747904,-3.86513 -0.05994,-0.13325 -0.164656,-0.34587 -0.233172,-0.47493 -0.502888,-0.94724 -1.166037,-1.67867 -1.989416,-2.19448 -0.123821,-0.0776 -0.329567,-0.19531 -0.458807,-0.26347 -0.86031,-0.45373 -1.837877,-0.69732 -2.933005,-0.73085 -0.146053,-0.004 -0.383029,-0.004 -0.529097,-5e-4 z m 0.401254,3.16347 c 0.164168,0.0217 0.326299,0.0638 0.486382,0.1263 0.136039,0.0531 0.350138,0.15717 0.471985,0.23754 0.171441,0.11309 0.324811,0.25977 0.46011,0.43998 0.08769,0.1168 0.207795,0.32252 0.259991,0.45883 0.03744,0.0978 0.06891,0.20335 0.09565,0.31511 0.03397,0.14197 -0.06609,0.25908 -0.212217,0.25908 h -3.656625 c -0.146125,0 -0.24758,-0.11739 -0.216034,-0.26005 0.02436,-0.11015 0.05296,-0.2143 0.08691,-0.31088 0.04837,-0.1376 0.164748,-0.34521 0.251661,-0.46259 0.131187,-0.17719 0.277374,-0.32194 0.438533,-0.4342 0.119768,-0.0834 0.334117,-0.18731 0.470798,-0.23881 0.176109,-0.0663 0.35444,-0.1103 0.535022,-0.13192 0.145032,-0.0174 0.383074,-0.0175 0.527837,0.002 z"
       style="font-weight:900;font-size:25.4px;font-family:Figtree;-inkscape-font-specification:'Figtree Heavy';stroke-width:0.264583"
       id="path3" />
    <path
       d="m 41.674976,123.64258 0,5.85391 c 0,0.14612 -0.06925,0.16834 -0.161759,0.0552 -0.130881,-0.16001 -0.270685,-0.30869 -0.421561,-0.44325 -0.109004,-0.0972 -0.297375,-0.24156 -0.419426,-0.32185 -0.581005,-0.38217 -1.284889,-0.59121 -2.111363,-0.62749 -0.145971,-0.006 -0.382994,-0.006 -0.529033,-0.001 -0.987271,0.0326 -1.855267,0.24959 -2.604301,0.65143 -0.128749,0.0691 -0.330855,0.1931 -0.450648,0.27675 -0.674158,0.47074 -1.214212,1.10495 -1.619975,1.90244 -0.06626,0.13023 -0.165538,0.34548 -0.221368,0.4805 -0.359664,0.86986 -0.551855,1.89496 -0.576638,3.07489 -0.0031,0.14609 -0.0031,0.38303 6.4e-5,0.52912 0.02508,1.16739 0.217686,2.19189 0.577879,3.07381 0.05525,0.13527 0.153802,0.35084 0.220063,0.48107 0.405762,0.79748 0.945816,1.43169 1.619973,1.90243 0.119794,0.0837 0.321901,0.20768 0.450651,0.27675 0.749034,0.40184 1.61703,0.61884 2.6043,0.65143 0.146039,0.005 0.383063,0.005 0.529036,-0.001 0.826474,-0.0363 1.530358,-0.24532 2.111363,-0.6275 0.12205,-0.0803 0.310409,-0.2246 0.420262,-0.3209 0.188465,-0.16523 0.361182,-0.35055 0.51885,-0.55497 0.08923,-0.1157 0.166477,-0.0964 0.180513,0.049 l 0.08611,0.89232 a 0.29134565,0.29134565 42.24392 0 0 0.289998,0.26336 h 3.814239 a 0.26458333,0.26458333 135 0 0 0.264583,-0.26458 V 123.64258 A 0.26458333,0.26458333 45 0 0 45.982207,123.378 h -4.042648 a 0.26458333,0.26458333 135 0 0 -0.264583,0.26458 z m -1.920206,8.76535 c 0.23392,0.0235 0.448996,0.0793 0.645383,0.16713 0.133272,0.0596 0.336095,0.18448 0.45051,0.2752 0.169997,0.13481 0.316248,0.29602 0.4387,0.48365 0.07982,0.12231 0.187794,0.3344 0.236948,0.47188 0.0557,0.1558 0.09445,0.32242 0.120051,0.49736 0.02114,0.14446 0.05393,0.37058 0.05393,0.50516 -0.02532,0.24443 -0.02532,0.24443 -0.02532,0.24443 -0.05432,0.44414 -0.09407,0.61779 -0.151593,0.78175 -0.04831,0.13772 -0.156338,0.34962 -0.238178,0.47059 -0.122548,0.18113 -0.268725,0.34127 -0.438478,0.48044 -0.112947,0.0926 -0.313253,0.22123 -0.446315,0.28133 -0.191226,0.0864 -0.397981,0.14161 -0.620381,0.16565 -0.145213,0.0157 -0.383023,0.0157 -0.52812,-9.4e-4 -0.216767,-0.0248 -0.423182,-0.0808 -0.619187,-0.16796 -0.133448,-0.0593 -0.333602,-0.18789 -0.44418,-0.28329 -0.159724,-0.13782 -0.299068,-0.29603 -0.417955,-0.47468 -0.08092,-0.1216 -0.188902,-0.33332 -0.241029,-0.46977 -0.09027,-0.23629 -0.149978,-0.49081 -0.1793,-0.76368 -0.01561,-0.14526 -0.01566,-0.38249 9e-5,-0.52773 0.02901,-0.26755 0.08763,-0.51437 0.17604,-0.74034 0.05321,-0.13601 0.161146,-0.3478 0.240066,-0.4707 0.118777,-0.18496 0.258137,-0.34423 0.418005,-0.47784 0.112045,-0.0936 0.313376,-0.22091 0.446233,-0.28148 0.186062,-0.0848 0.384723,-0.13954 0.595901,-0.16409 0.145071,-0.0169 0.382845,-0.0167 0.528175,-0.002 z"
       style="font-weight:900;font-size:25.4px;font-family:Figtree;-inkscape-font-specification:'Figtree Heavy';stroke-width:0.264583"
       id="path2" />
  </g>
</svg>
